<?xml version="1.0"?>
<svg version="1.1" xmlns="http://www.w3.org/2000/svg" width="187px" height="36px" style=""><path fill="#ffffff" d="M50.61767578125,29.24169921875q0-0.0673828125,0.044921875-0.477294921875t0.117919921875-0.99951171875t0.162841796875-1.26904296875t0.1572265625-1.285888671875t0.117919921875-1.06689453125t0.050537109375-0.61767578125q-0.08984375-0.044921875-0.218994140625-0.129150390625t-0.129150390625-0.196533203125q0-0.1572265625,0.151611328125-0.252685546875t0.263916015625-0.140380859375q0.044921875-0.57275390625,0.1123046875-1.5947265625t0.207763671875-2.206787109375t0.39306640625-2.4033203125t0.668212890625-2.21240234375t0.99951171875-1.622802734375t1.4375-0.62890625t1.4150390625,0.5390625t0.915283203125,1.40380859375t0.5390625,1.92041015625t0.28076171875,2.10009765625t0.117919921875,1.9541015625t0.044921875,1.4599609375q0.0224609375,0.34814453125,0.16845703125,0.466064453125t0.320068359375,0.162841796875t0.314453125,0.10107421875t0.140380859375,0.28076171875q0,0.25830078125-0.314453125,0.359375t-0.494140625,0.12353515625q0.1123046875,1.40380859375,0.308837890625,2.7626953125t0.522216796875,2.740234375q0.044921875,0.25830078125,0.12353515625,0.522216796875t0.07861328125,0.510986328125q0,0.1796875-0.12353515625,0.297607421875t-0.320068359375,0.185302734375t-0.39306640625,0.08984375t-0.331298828125,0.0224609375q-0.50537109375,0-0.853515625-0.19091796875t-0.46044921875-0.72998046875q-0.30322265625-1.44873046875-0.59521484375-3.04345703125q-0.2470703125-1.38134765625-0.2470703125-2.68408203125q0-0.2021484375,0.01123046875-0.404296875q-0.943359375,0-1.89794921875,0.044921875t-1.83056640625,0.3369140625q-0.0224609375,0.30322265625-0.1123046875,1.1455078125t-0.2021484375,1.80810546875t-0.230224609375,1.847412109375t-0.140380859375,1.252197265625q-0.0224609375,0.1572265625-0.230224609375,0.297607421875t-0.44921875,0.151611328125t-0.4267578125-0.151611328125t-0.185302734375-0.578369140625z M52.7177734375,22.43603515625q0.8759765625-0.2021484375,1.757568359375-0.23583984375t1.780029296875-0.07861328125q-0.044921875-0.28076171875-0.0224609375-0.578369140625t0.0224609375-0.600830078125q0-0.66259765625-0.03369140625-1.53857421875t-0.10107421875-1.7744140625t-0.174072265625-1.768798828125t-0.241455078125-1.5498046875t-0.286376953125-1.083740234375t-0.331298828125-0.404296875q-0.34814453125,0.0224609375-0.656982421875,0.600830078125t-0.5615234375,1.47119140625t-0.46044921875,1.9990234375t-0.34814453125,2.161865234375t-0.230224609375,1.96533203125t-0.1123046875,1.4150390625z M61.945512695312,25.3671875l0-0.32568359375q0-0.404296875,0.0224609375-0.763671875q0.0224609375-0.50537109375,0.0224609375-0.8310546875q0-0.1796875,0.0224609375-0.409912109375t0.1123046875-0.364990234375q0.1123046875-0.1123046875,0.263916015625-0.230224609375t0.331298828125-0.117919921875q0.57275390625,0,0.8984375,0.129150390625t0.34814453125,0.533447265625l0.044921875,0.34814453125q0.2021484375-0.48291015625,0.5390625-1.196044921875t0.780517578125-1.35888671875t0.99951171875-1.1005859375t1.173583984375-0.454833984375q0.57275390625,0,0.943359375,0.5390625t0.589599609375,1.375732421875t0.308837890625,1.8642578125t0.12353515625,2.015869140625t0.044921875,1.802490234375t0.07861328125,1.229736328125q0.044921875,0.34814453125,0.151611328125,0.735595703125t0.106689453125,0.713134765625q0,0.08984375-0.129150390625,0.174072265625t-0.275146484375,0.140380859375t-0.297607421875,0.08984375t-0.218994140625,0.03369140625q-0.43798828125,0-0.623291015625-0.656982421875t-0.230224609375-1.645263671875t-0.044921875-2.139404296875t-0.07861328125-2.139404296875t-0.320068359375-1.645263671875t-0.769287109375-0.679443359375q-0.48291015625,0-0.99951171875,0.623291015625t-0.88720703125,1.656494140625q-0.359375,1.033203125-0.494140625,2.34716796875q-0.044921875,0.41552734375-0.044921875,0.8310546875q0,0.90966796875,0.19091796875,1.8193359375q0.0224609375,0.1572265625-0.129150390625,0.23583984375t-0.376220703125,0.12353515625t-0.454833984375,0.05615234375t-0.353759765625,0.01123046875q-0.43798828125,0-0.701904296875-0.308837890625t-0.409912109375-0.791748046875t-0.196533203125-1.083740234375t-0.061767578125-1.184814453125z M72.161533203125,25.3671875l0-0.32568359375q0-0.404296875,0.0224609375-0.763671875q0.0224609375-0.50537109375,0.0224609375-0.8310546875q0-0.1796875,0.0224609375-0.409912109375t0.1123046875-0.364990234375q0.1123046875-0.1123046875,0.263916015625-0.230224609375t0.331298828125-0.117919921875q0.57275390625,0,0.8984375,0.129150390625t0.34814453125,0.533447265625l0.044921875,0.34814453125q0.2021484375-0.48291015625,0.5390625-1.196044921875t0.780517578125-1.35888671875t0.99951171875-1.1005859375t1.173583984375-0.454833984375q0.57275390625,0,0.943359375,0.5390625t0.589599609375,1.375732421875t0.308837890625,1.8642578125t0.12353515625,2.015869140625t0.044921875,1.802490234375t0.07861328125,1.229736328125q0.044921875,0.34814453125,0.151611328125,0.735595703125t0.106689453125,0.713134765625q0,0.08984375-0.129150390625,0.174072265625t-0.275146484375,0.140380859375t-0.297607421875,0.08984375t-0.218994140625,0.03369140625q-0.43798828125,0-0.623291015625-0.656982421875t-0.230224609375-1.645263671875t-0.044921875-2.139404296875t-0.07861328125-2.139404296875t-0.320068359375-1.645263671875t-0.769287109375-0.679443359375q-0.48291015625,0-0.99951171875,0.623291015625t-0.88720703125,1.656494140625q-0.359375,1.033203125-0.494140625,2.34716796875q-0.044921875,0.41552734375-0.044921875,0.8310546875q0,0.90966796875,0.19091796875,1.8193359375q0.0224609375,0.1572265625-0.129150390625,0.23583984375t-0.376220703125,0.12353515625t-0.454833984375,0.05615234375t-0.353759765625,0.01123046875q-0.43798828125,0-0.701904296875-0.308837890625t-0.409912109375-0.791748046875t-0.196533203125-1.083740234375t-0.061767578125-1.184814453125z M82.366323242187,25.31103515625q0-0.763671875,0.207763671875-1.47119140625t0.623291015625-1.263427734375t1.038818359375-0.88720703125t1.443115234375-0.331298828125q0.50537109375,0,1.117431640625,0.151611328125t1.151123046875,0.44921875t0.8984375,0.758056640625t0.359375,1.0556640625q0,0.28076171875-0.095458984375,0.4267578125t-0.387451171875,0.14599609375l-0.12353515625-0.0224609375q0.32568359375,0.8759765625,0.5615234375,1.796875t0.46044921875,1.841796875q0.08984375,0.1796875,0.134765625,0.320068359375t0.044921875,0.275146484375q0,0.1796875-0.10107421875,0.297607421875t-0.263916015625,0.174072265625t-0.3369140625,0.07861328125t-0.308837890625,0.0224609375q-0.48291015625,0-0.724365234375-0.16845703125t-0.34814453125-0.46044921875t-0.129150390625-0.656982421875t-0.08984375-0.735595703125q-0.134765625,0.43798828125-0.353759765625,0.853515625t-0.5166015625,0.746826171875t-0.701904296875,0.52783203125t-0.90966796875,0.196533203125q-0.7412109375,0-1.24658203125-0.4267578125t-0.814208984375-1.050048828125t-0.44921875-1.330810546875t-0.140380859375-1.31396484375z M83.961049804687,25.15380859375q0,0.41552734375,0.05615234375,0.8759765625t0.185302734375,0.90966796875t0.331298828125,0.847900390625t0.50537109375,0.701904296875q0.55029296875-0.59521484375,0.814208984375-1.44873046875t0.4716796875-1.645263671875t0.4716796875-1.35888671875t0.814208984375-0.567138671875q0.34814453125,0,0.583984375,0.12353515625q-0.1123046875-0.28076171875-0.37060546875-0.544677734375t-0.578369140625-0.48291015625t-0.66259765625-0.359375t-0.645751953125-0.140380859375q-0.08984375,0-0.207763671875,0.028076171875t-0.185302734375,0.005615234375q-0.46044921875,0.134765625-0.758056640625,0.466064453125t-0.48291015625,0.780517578125t-0.263916015625,0.9208984375t-0.07861328125,0.88720703125z M96.475610351563,27.3662109375q0-0.39306640625,0.26953125-0.499755859375t0.583984375-0.106689453125q0.55029296875,0,0.93212890625,0.494140625t0.724365234375,1.083740234375t0.679443359375,1.083740234375t0.79736328125,0.494140625q0.34814453125,0,0.634521484375-0.174072265625t0.494140625-0.43798828125t0.320068359375-0.59521484375t0.1123046875-0.656982421875q0-0.853515625-0.342529296875-1.76318359375t-0.8759765625-1.87548828125t-1.128662109375-1.9765625t-1.123046875-2.05517578125t-0.8759765625-2.128173828125t-0.34814453125-2.184326171875q0-1.65087890625,0.98828125-2.560546875t2.60546875-0.90966796875q0.55029296875,0,1.11181640625,0.1572265625t1.033203125,0.4716796875t0.769287109375,0.77490234375t0.297607421875,1.078125q0,0.2021484375-0.297607421875,0.263916015625t-0.432373046875,0.061767578125q-0.2021484375,0-0.43798828125-0.050537109375t-0.30322265625-0.275146484375t-0.19091796875-0.5166015625t-0.308837890625-0.544677734375t-0.43798828125-0.43798828125t-0.555908203125-0.185302734375q-0.50537109375,0-0.859130859375,0.207763671875t-0.57275390625,0.555908203125t-0.32568359375,0.780517578125t-0.106689453125,0.892822265625q0,1.078125,0.37060546875,2.173095703125t0.9208984375,2.1787109375t1.196044921875,2.139404296875t1.196044921875,2.05517578125t0.9208984375,1.9541015625t0.37060546875,1.80810546875q0,0.763671875-0.359375,1.29150390625t-0.90966796875,0.859130859375t-1.218505859375,0.48291015625t-1.308349609375,0.151611328125q-0.68505859375,0-1.40380859375-0.275146484375t-1.29150390625-0.758056640625t-0.943359375-1.128662109375t-0.37060546875-1.398193359375z M106.57932617188,26.53515625l0-1.0556640625q0-0.57275390625,0.028076171875-1.622802734375t0.072998046875-2.30224609375t0.12353515625-2.611083984375t0.1796875-2.566162109375t0.241455078125-2.161865234375t0.320068359375-1.4150390625q0.1123046875-0.25830078125,0.37060546875-0.32568359375t0.50537109375-0.0673828125q0.39306640625,0,0.690673828125,0.174072265625t0.297607421875,0.634521484375l-0.2021484375,0.224609375q-0.39306640625,2.59423828125-0.50537109375,5.2109375t-0.1572265625,5.2333984375q0.28076171875-0.43798828125,0.634521484375-0.859130859375t0.7861328125-0.746826171875t0.93212890625-0.522216796875t1.094970703125-0.196533203125q0.763671875,0,1.263427734375,0.46044921875t0.825439453125,1.196044921875t0.48291015625,1.645263671875t0.241455078125,1.8193359375t0.117919921875,1.723876953125t0.10107421875,1.353271484375q-0.21337890625,0.2919921875-0.62890625,0.2919921875l-0.03369140625,0q-0.1796875,0-0.39306640625-0.044921875t-0.28076171875-0.224609375l0.0224609375,0.0224609375q-0.1572265625-0.34814453125-0.21337890625-1.005126953125t-0.08984375-1.44873046875t-0.117919921875-1.622802734375t-0.252685546875-1.5048828125t-0.494140625-1.11181640625t-0.8759765625-0.46044921875l-0.0673828125,0q-0.66259765625,0-1.11181640625,0.404296875q-0.4716796875,0.4267578125-0.763671875,1.123046875t-0.44921875,1.5498046875t-0.241455078125,1.645263671875t-0.129150390625,1.4375t-0.1123046875,0.948974609375q-0.0673828125,0.25830078125-0.398681640625,0.342529296875t-0.567138671875,0.084228515625q-0.55029296875,0-0.8984375-0.314453125q-0.25830078125-0.61767578125-0.30322265625-1.53857421875t-0.044921875-1.796875z M117.09856933594,25.5244140625q0-0.64013671875,0.162841796875-1.319580078125t0.5166015625-1.22412109375t0.892822265625-0.88720703125t1.302734375-0.342529296875q0.57275390625,0,1.207275390625,0.196533203125t1.162353515625,0.5615234375t0.859130859375,0.892822265625t0.331298828125,1.17919921875q0,0.7861328125-0.286376953125,1.49365234375t-0.802978515625,1.263427734375t-1.207275390625,0.8759765625t-1.499267578125,0.320068359375q-0.66259765625,0-1.15673828125-0.241455078125t-0.825439453125-0.645751953125t-0.494140625-0.95458984375t-0.162841796875-1.16796875z M118.74944824219,25.501953125q0,0.2021484375,0.061767578125,0.59521484375t0.185302734375,0.769287109375t0.320068359375,0.6513671875t0.477294921875,0.252685546875q0.59521484375-0.0673828125,0.982666015625-0.387451171875t0.62890625-0.780517578125t0.3369140625-0.99951171875t0.095458984375-1.02197265625q0-0.61767578125-0.241455078125-1.033203125t-0.791748046875-0.673828125q0,0.0224609375,0.0224609375,0.0224609375t0.0224609375-0.0224609375l-0.28076171875-0.0673828125q-0.1123046875-0.044921875-0.275146484375-0.10107421875t-0.320068359375-0.2470703125q-0.43798828125,0.1572265625-0.679443359375,0.404296875t-0.364990234375,0.600830078125t-0.151611328125,0.847900390625t-0.028076171875,1.1904296875z M125.60755859375,21.24560546875q0-0.52783203125,0.207763671875-0.780517578125t0.758056640625-0.252685546875q0.32568359375,0,0.612060546875,0.134765625t0.286376953125,0.57275390625q0.044921875,0.64013671875,0.044921875,1.342041015625t0.12353515625,1.330810546875q0.28076171875-0.46044921875,0.634521484375-0.9208984375t0.780517578125-0.81982421875t0.93212890625-0.578369140625t1.1005859375-0.218994140625q0.80859375,0,1.3701171875,0.3369140625t0.926513671875,0.8759765625t0.52783203125,1.218505859375t0.162841796875,1.364501953125q0,1.0556640625-0.320068359375,1.723876953125t-0.847900390625,1.050048828125t-1.196044921875,0.5166015625t-1.342041015625,0.134765625q-0.59521484375,0-1.11181640625-0.230224609375t-0.71875-0.870361328125q0-0.1796875,0.263916015625-0.224609375t0.376220703125-0.044921875q0.37060546875,0,0.55029296875,0.2021484375q0.134765625,0.1572265625,0.297607421875,0.320068359375t0.342529296875,0.162841796875q0.34814453125,0,0.72998046875-0.196533203125t0.701904296875-0.5166015625t0.5390625-0.758056640625t0.218994140625-0.8984375q0-0.39306640625-0.0673828125-0.97705078125t-0.230224609375-1.123046875t-0.44921875-0.93212890625t-0.724365234375-0.39306640625q-0.66259765625,0-1.196044921875,0.6064453125t-0.88720703125,1.4599609375t-0.55029296875,1.7744140625t-0.196533203125,1.53857421875t0.07861328125,1.56103515625t0.162841796875,1.959716796875t0.162841796875,1.959716796875t0.07861328125,1.56103515625q0,0.1572265625-0.129150390625,0.252685546875t-0.308837890625,0.151611328125t-0.364990234375,0.0673828125t-0.275146484375,0.01123046875q-0.30322265625,0-0.634521484375-0.0673828125t-0.454833984375-0.41552734375q-0.1572265625-0.55029296875-0.2919921875-1.566650390625t-0.241455078125-2.24609375t-0.185302734375-2.5830078125t-0.134765625-2.611083984375t-0.084228515625-2.30224609375t-0.028076171875-1.662109375z"/><path fill="#" d=""/></svg>
